<?xml version="1.0" encoding="UTF-8"?>
<svg width="60px" height="60px" viewBox="0 0 60 60" version="1.1" xmlns="http://www.w3.org/2000/svg" xmlns:xlink="http://www.w3.org/1999/xlink">
    <!-- Generator: Sketch 47.1 (45422) - http://www.bohemiancoding.com/sketch -->
    <title>icon-invoice</title>
    <desc>Created with Sketch.</desc>
    <defs></defs>
    <g id="Final-images" stroke="none" stroke-width="1" fill="none" fill-rule="evenodd">
        <g id="icon-invoice" fill-rule="nonzero">
            <g id="receipt">
                <path d="M56.8965517,0.517241379 L3.10344828,0.517241379 C1.39655172,0.517241379 0,1.9137931 0,3.62068966 C0,5.32758621 1.39655172,6.72413793 3.10344828,6.72413793 L3.10344828,3.62068966 L56.8965517,3.62068966 L56.8965517,6.72413793 C58.6034483,6.72413793 60,5.32758621 60,3.62068966 C60,1.9137931 58.6034483,0.517241379 56.8965517,0.517241379 Z" id="Shape" fill="#3D465B"></path>
                <polygon id="Shape" fill="#F0EDE0" points="5.17241379 53.2758621 11.3793103 59.4827586 17.5862069 53.2758621 23.7931034 59.4827586 30 53.2758621 36.2068966 59.4827586 42.4137931 53.2758621 48.6206897 59.4827586 54.8275862 53.2758621 56.8965517 55.3448276 56.8965517 3.62068966 3.10344828 3.62068966 3.10344828 55.3448276"></polygon>
                <path d="M44.4827586,42.9310345 L28.9655172,42.9310345 C28.3944828,42.9310345 27.9310345,42.4686207 27.9310345,41.8965517 C27.9310345,41.3244828 28.3944828,40.862069 28.9655172,40.862069 L44.4827586,40.862069 C45.0537931,40.862069 45.5172414,41.3244828 45.5172414,41.8965517 C45.5172414,42.4686207 45.0537931,42.9310345 44.4827586,42.9310345 Z" id="Shape" fill="#D4C3A5"></path>
                <path d="M49.6551724,42.9310345 C49.3862069,42.9310345 49.1172414,42.8172414 48.9206897,42.6310345 C48.7344828,42.4344828 48.6206897,42.1655172 48.6206897,41.8965517 C48.6206897,41.6162069 48.7344828,41.3575862 48.9206897,41.162069 C49.3137931,40.7793103 49.9965517,40.7793103 50.3896552,41.162069 C50.5758621,41.3575862 50.6896552,41.6162069 50.6896552,41.8965517 C50.6896552,42.1655172 50.5758621,42.4344828 50.3896552,42.6310345 C50.1931034,42.8172414 49.9241379,42.9310345 49.6551724,42.9310345 Z" id="Shape" fill="#D4C3A5"></path>
                <path d="M49.6551724,28.4482759 L34.137931,28.4482759 C33.5668966,28.4482759 33.1034483,27.9858621 33.1034483,27.4137931 C33.1034483,26.8417241 33.5668966,26.3793103 34.137931,26.3793103 L49.6551724,26.3793103 C50.2262069,26.3793103 50.6896552,26.8417241 50.6896552,27.4137931 C50.6896552,27.9858621 50.2262069,28.4482759 49.6551724,28.4482759 Z" id="Shape" fill="#D4C3A5"></path>
                <path d="M49.6551724,35.6896552 L39.3103448,35.6896552 C38.7393103,35.6896552 38.2758621,35.2272414 38.2758621,34.6551724 C38.2758621,34.0831034 38.7393103,33.6206897 39.3103448,33.6206897 L49.6551724,33.6206897 C50.2262069,33.6206897 50.6896552,34.0831034 50.6896552,34.6551724 C50.6896552,35.2272414 50.2262069,35.6896552 49.6551724,35.6896552 Z" id="Shape" fill="#D4C3A5"></path>
                <path d="M31.0344828,35.6896552 L28.9655172,35.6896552 C28.3944828,35.6896552 27.9310345,35.2272414 27.9310345,34.6551724 C27.9310345,34.0831034 28.3944828,33.6206897 28.9655172,33.6206897 L31.0344828,33.6206897 C31.6055172,33.6206897 32.0689655,34.0831034 32.0689655,34.6551724 C32.0689655,35.2272414 31.6055172,35.6896552 31.0344828,35.6896552 Z" id="Shape" fill="#D4C3A5"></path>
                <path d="M44.4827586,21.2068966 L28.9655172,21.2068966 C28.3944828,21.2068966 27.9310345,20.7444828 27.9310345,20.1724138 C27.9310345,19.6003448 28.3944828,19.137931 28.9655172,19.137931 L44.4827586,19.137931 C45.0537931,19.137931 45.5172414,19.6003448 45.5172414,20.1724138 C45.5172414,20.7444828 45.0537931,21.2068966 44.4827586,21.2068966 Z" id="Shape" fill="#D4C3A5"></path>
                <path d="M49.6551724,21.2068966 C49.3862069,21.2068966 49.1172414,21.0931034 48.9206897,20.9068966 C48.7344828,20.7103448 48.6206897,20.4413793 48.6206897,20.1724138 C48.6206897,19.892069 48.7344828,19.6334483 48.9206897,19.437931 C49.3034483,19.0551724 50.0068966,19.0551724 50.3896552,19.437931 C50.5758621,19.6334483 50.6896552,19.9034483 50.6896552,20.1724138 C50.6896552,20.4413793 50.5758621,20.7103448 50.3896552,20.9068966 C50.1931034,21.0931034 49.9344828,21.2068966 49.6551724,21.2068966 Z" id="Shape" fill="#D4C3A5"></path>
                <path d="M30,28.4482759 C29.7310345,28.4482759 29.462069,28.3344828 29.2655172,28.1482759 C29.0793103,27.9517241 28.9655172,27.6931034 28.9655172,27.4137931 C28.9655172,27.1334483 29.0793103,26.8748276 29.2655172,26.6793103 C29.6586207,26.2965517 30.3517241,26.2965517 30.7344828,26.6793103 C30.9206897,26.8748276 31.0344828,27.1334483 31.0344828,27.4137931 C31.0344828,27.6931034 30.9206897,27.9517241 30.7344828,28.1482759 C30.537931,28.3344828 30.2689655,28.4482759 30,28.4482759 Z" id="Shape" fill="#D4C3A5"></path>
                <path d="M35.1724138,35.6896552 C34.9034483,35.6896552 34.6344828,35.5758621 34.437931,35.3896552 C34.2517241,35.1931034 34.137931,34.9241379 34.137931,34.6551724 C34.137931,34.3862069 34.2517241,34.1162069 34.437931,33.9206897 C34.8310345,33.537931 35.5241379,33.537931 35.9068966,33.9206897 C36.0931034,34.1068966 36.2068966,34.3748276 36.2068966,34.6551724 C36.2068966,34.9344828 36.0931034,35.1931034 35.9068966,35.3896552 C35.7103448,35.5758621 35.4413793,35.6896552 35.1724138,35.6896552 Z" id="Shape" fill="#D4C3A5"></path>
                <path d="M18.6206897,26.3793103 C18.6206897,26.9513793 19.0841379,27.4137931 19.6551724,27.4137931 C20.2262069,27.4137931 20.6896552,26.9513793 20.6896552,26.3793103 C20.6896552,23.882069 18.9093103,21.7924138 16.5517241,21.3113793 L16.5517241,20.1724138 C16.5517241,19.6003448 16.0882759,19.137931 15.5172414,19.137931 C14.9462069,19.137931 14.4827586,19.6003448 14.4827586,20.1724138 L14.4827586,21.3144828 C13.3541379,21.5441379 12.3258621,22.1431034 11.5675862,23.04 C10.9355172,23.7868966 10.6427586,24.7427586 10.7462069,25.7327586 C10.8517241,26.7455172 11.3731034,27.6848276 12.1768966,28.3096552 L14.4827586,30.1034483 L14.4827586,35.7289655 C13.2817241,35.3006897 12.4137931,34.1627586 12.4137931,32.8158621 C12.4137931,32.2437931 11.9503448,31.7813793 11.3793103,31.7813793 C10.8082759,31.7813793 10.3448276,32.2437931 10.3448276,32.8158621 C10.3448276,35.3131034 12.1251724,37.4027586 14.4827586,37.8837931 L14.4827586,38.7931034 C14.4827586,39.3651724 14.9462069,39.8275862 15.5172414,39.8275862 C16.0882759,39.8275862 16.5517241,39.3651724 16.5517241,38.7931034 L16.5517241,37.8806897 C17.6803448,37.6510345 18.7086207,37.052069 19.467931,36.1551724 C20.1,35.4062069 20.3917241,34.4503448 20.2882759,33.4603448 C20.1817241,32.4486207 19.6613793,31.5103448 18.8575862,30.8865517 L16.5517241,29.0927586 L16.5517241,23.4672414 C17.7527586,23.8944828 18.6206897,25.0324138 18.6206897,26.3793103 Z M17.5872414,32.5189655 C17.9482759,32.7993103 18.1831034,33.2224138 18.2306897,33.6755172 C18.2751724,34.0996552 18.1531034,34.5062069 17.8882759,34.8186207 C17.5282759,35.2437931 17.0627586,35.5417241 16.5517241,35.7237931 L16.5517241,31.712069 L17.5872414,32.5189655 Z M13.4472414,26.6772414 C13.0851724,26.3958621 12.8513793,25.9727586 12.8037931,25.5186207 C12.7603448,25.0955172 12.8813793,24.69 13.1462069,24.3765517 C13.5062069,23.9513793 13.9717241,23.6534483 14.4827586,23.4713793 L14.4827586,27.482069 L13.4472414,26.6772414 Z" id="Shape" fill="#24AE5F"></path>
                <g id="Group" transform="translate(5.172414, 9.310345)" fill="#A5A5A4">
                    <path d="M1.03448276,2.5862069 C0.765517241,2.5862069 0.496551724,2.47241379 0.3,2.2862069 C0.113793103,2.08965517 0,1.82068966 0,1.55172414 C0,1.28275862 0.113793103,1.01275862 0.3,0.817241379 C0.693103448,0.434482759 1.3862069,0.434482759 1.76896552,0.817241379 C1.95517241,1.01275862 2.06896552,1.28275862 2.06896552,1.55172414 C2.06896552,1.82068966 1.95517241,2.08965517 1.76896552,2.2862069 C1.57241379,2.47241379 1.30344828,2.5862069 1.03448276,2.5862069 Z" id="Shape"></path>
                    <path d="M43.6241379,1.55172414 C43.6241379,0.982758621 44.0793103,0.517241379 44.6586207,0.517241379 L44.6586207,0.517241379 C45.2275862,0.517241379 45.6931034,0.982758621 45.6931034,1.55172414 L45.6931034,1.55172414 C45.6931034,2.12068966 45.2275862,2.5862069 44.6586207,2.5862069 L44.6586207,2.5862069 C44.0793103,2.5862069 43.6241379,2.12068966 43.6241379,1.55172414 Z M39.6517241,1.55172414 C39.6517241,0.982758621 40.1172414,0.517241379 40.6862069,0.517241379 L40.6862069,0.517241379 C41.2655172,0.517241379 41.7206897,0.982758621 41.7206897,1.55172414 L41.7206897,1.55172414 C41.7206897,2.12068966 41.2655172,2.5862069 40.6862069,2.5862069 L40.6862069,2.5862069 C40.1172414,2.5862069 39.6517241,2.12068966 39.6517241,1.55172414 Z M35.6896552,1.55172414 C35.6896552,0.982758621 36.1551724,0.517241379 36.7241379,0.517241379 L36.7241379,0.517241379 C37.2931034,0.517241379 37.7586207,0.982758621 37.7586207,1.55172414 L37.7586207,1.55172414 C37.7586207,2.12068966 37.2931034,2.5862069 36.7241379,2.5862069 L36.7241379,2.5862069 C36.1551724,2.5862069 35.6896552,2.12068966 35.6896552,1.55172414 Z M31.7275862,1.55172414 C31.7275862,0.982758621 32.1827586,0.517241379 32.762069,0.517241379 L32.762069,0.517241379 C33.3310345,0.517241379 33.7965517,0.982758621 33.7965517,1.55172414 L33.7965517,1.55172414 C33.7965517,2.12068966 33.3310345,2.5862069 32.762069,2.5862069 L32.762069,2.5862069 C32.1827586,2.5862069 31.7275862,2.12068966 31.7275862,1.55172414 Z M27.7551724,1.55172414 C27.7551724,0.982758621 28.2206897,0.517241379 28.7896552,0.517241379 L28.7896552,0.517241379 C29.3689655,0.517241379 29.8241379,0.982758621 29.8241379,1.55172414 L29.8241379,1.55172414 C29.8241379,2.12068966 29.3689655,2.5862069 28.7896552,2.5862069 L28.7896552,2.5862069 C28.2206897,2.5862069 27.7551724,2.12068966 27.7551724,1.55172414 Z M23.7931034,1.55172414 C23.7931034,0.982758621 24.2586207,0.517241379 24.8275862,0.517241379 L24.8275862,0.517241379 C25.3965517,0.517241379 25.862069,0.982758621 25.862069,1.55172414 L25.862069,1.55172414 C25.862069,2.12068966 25.3965517,2.5862069 24.8275862,2.5862069 L24.8275862,2.5862069 C24.2586207,2.5862069 23.7931034,2.12068966 23.7931034,1.55172414 Z M19.8310345,1.55172414 C19.8310345,0.982758621 20.2862069,0.517241379 20.8655172,0.517241379 L20.8655172,0.517241379 C21.4344828,0.517241379 21.9,0.982758621 21.9,1.55172414 L21.9,1.55172414 C21.9,2.12068966 21.4344828,2.5862069 20.8655172,2.5862069 L20.8655172,2.5862069 C20.2862069,2.5862069 19.8310345,2.12068966 19.8310345,1.55172414 Z M15.8586207,1.55172414 C15.8586207,0.982758621 16.3241379,0.517241379 16.8931034,0.517241379 L16.8931034,0.517241379 C17.4724138,0.517241379 17.9275862,0.982758621 17.9275862,1.55172414 L17.9275862,1.55172414 C17.9275862,2.12068966 17.4724138,2.5862069 16.8931034,2.5862069 L16.8931034,2.5862069 C16.3241379,2.5862069 15.8586207,2.12068966 15.8586207,1.55172414 Z M11.8965517,1.55172414 C11.8965517,0.982758621 12.362069,0.517241379 12.9310345,0.517241379 L12.9310345,0.517241379 C13.5,0.517241379 13.9655172,0.982758621 13.9655172,1.55172414 L13.9655172,1.55172414 C13.9655172,2.12068966 13.5,2.5862069 12.9310345,2.5862069 L12.9310345,2.5862069 C12.362069,2.5862069 11.8965517,2.12068966 11.8965517,1.55172414 Z M7.93448276,1.55172414 C7.93448276,0.982758621 8.38965517,0.517241379 8.96896552,0.517241379 L8.96896552,0.517241379 C9.53793103,0.517241379 10.0034483,0.982758621 10.0034483,1.55172414 L10.0034483,1.55172414 C10.0034483,2.12068966 9.53793103,2.5862069 8.96896552,2.5862069 L8.96896552,2.5862069 C8.38965517,2.5862069 7.93448276,2.12068966 7.93448276,1.55172414 Z M3.96206897,1.55172414 C3.96206897,0.982758621 4.42758621,0.517241379 4.99655172,0.517241379 L4.99655172,0.517241379 C5.57586207,0.517241379 6.03103448,0.982758621 6.03103448,1.55172414 L6.03103448,1.55172414 C6.03103448,2.12068966 5.57586207,2.5862069 4.99655172,2.5862069 L4.99655172,2.5862069 C4.42758621,2.5862069 3.96206897,2.12068966 3.96206897,1.55172414 Z" id="Shape"></path>
                    <path d="M48.6206897,2.5862069 C48.3413793,2.5862069 48.0827586,2.47241379 47.8862069,2.27586207 C47.7,2.08965517 47.5862069,1.82068966 47.5862069,1.55172414 C47.5862069,1.28275862 47.7,1.01275862 47.8862069,0.817241379 C48.2586207,0.434482759 48.962069,0.434482759 49.3551724,0.817241379 C49.5413793,1.01275862 49.6551724,1.28275862 49.6551724,1.55172414 C49.6551724,1.82068966 49.5413793,2.08965517 49.3551724,2.2862069 C49.1586207,2.47241379 48.8896552,2.5862069 48.6206897,2.5862069 Z" id="Shape"></path>
                </g>
            </g>
        </g>
    </g>
</svg>