<?xml version="1.0" encoding="UTF-8"?>
<svg width="60px" height="60px" viewBox="0 0 60 60" version="1.1" xmlns="http://www.w3.org/2000/svg" xmlns:xlink="http://www.w3.org/1999/xlink">
    <!-- Generator: Sketch 47.1 (45422) - http://www.bohemiancoding.com/sketch -->
    <title>icon-checklist</title>
    <desc>Created with Sketch.</desc>
    <defs></defs>
    <g id="Final-images" stroke="none" stroke-width="1" fill="none" fill-rule="evenodd">
        <g id="icon-checklist" fill-rule="nonzero">
            <g id="list" transform="translate(6.000000, 0.000000)">
                <polygon id="Shape" fill="#EDEADA" points="47.4782609 14.4827586 32.8695652 0 0.52173913 0 0.52173913 60 47.4782609 60"></polygon>
                <polygon id="Shape" fill="#CEC9AE" points="32.8695652 0 32.8695652 14.4827586 47.4782609 14.4827586"></polygon>
                <path d="M37.0434783,22.7586207 L20.3478261,22.7586207 C19.7718261,22.7586207 19.3043478,22.2962069 19.3043478,21.7241379 C19.3043478,21.152069 19.7718261,20.6896552 20.3478261,20.6896552 L37.0434783,20.6896552 C37.6194783,20.6896552 38.0869565,21.152069 38.0869565,21.7241379 C38.0869565,22.2962069 37.6194783,22.7586207 37.0434783,22.7586207 Z" id="Shape" fill="#CEC9AE"></path>
                <path d="M12,23.7931034 C11.7318261,23.7931034 11.4636522,23.6906897 11.2612174,23.49 L9.17426087,21.4210345 C8.76626087,21.0165517 8.76626087,20.3627586 9.17426087,19.9582759 C9.58226087,19.5537931 10.2417391,19.5537931 10.6497391,19.9582759 L12.0761739,21.3724138 L16.5641739,17.8127586 C17.0128696,17.4558621 17.6713043,17.5282759 18.0302609,17.9741379 C18.3902609,18.4210345 18.3172174,19.0717241 17.8674783,19.4286207 L12.650087,23.5665517 C12.4601739,23.7186207 12.2295652,23.7931034 12,23.7931034 Z" id="Shape" fill="#14A085"></path>
                <path d="M37.0434783,34.137931 L20.3478261,34.137931 C19.7718261,34.137931 19.3043478,33.6755172 19.3043478,33.1034483 C19.3043478,32.5313793 19.7718261,32.0689655 20.3478261,32.0689655 L37.0434783,32.0689655 C37.6194783,32.0689655 38.0869565,32.5313793 38.0869565,33.1034483 C38.0869565,33.6755172 37.6194783,34.137931 37.0434783,34.137931 Z" id="Shape" fill="#CEC9AE"></path>
                <path d="M12,35.1724138 C11.7318261,35.1724138 11.4636522,35.07 11.2612174,34.8693103 L9.17426087,32.8003448 C8.76626087,32.3958621 8.76626087,31.742069 9.17426087,31.3375862 C9.58226087,30.9331034 10.2417391,30.9331034 10.6497391,31.3375862 L12.0761739,32.7517241 L16.5641739,29.192069 C17.0128696,28.8351724 17.6713043,28.9075862 18.0302609,29.3534483 C18.3902609,29.8003448 18.3172174,30.4510345 17.8674783,30.807931 L12.650087,34.9458621 C12.4601739,35.097931 12.2295652,35.1724138 12,35.1724138 Z" id="Shape" fill="#14A085"></path>
                <path d="M37.0434783,45.5172414 L20.3478261,45.5172414 C19.7718261,45.5172414 19.3043478,45.0548276 19.3043478,44.4827586 C19.3043478,43.9106897 19.7718261,43.4482759 20.3478261,43.4482759 L37.0434783,43.4482759 C37.6194783,43.4482759 38.0869565,43.9106897 38.0869565,44.4827586 C38.0869565,45.0548276 37.6194783,45.5172414 37.0434783,45.5172414 Z" id="Shape" fill="#CEC9AE"></path>
                <path d="M12,46.5517241 C11.7318261,46.5517241 11.4636522,46.4493103 11.2612174,46.2486207 L9.17426087,44.1796552 C8.76626087,43.7751724 8.76626087,43.1213793 9.17426087,42.7168966 C9.58226087,42.3124138 10.2417391,42.3124138 10.6497391,42.7168966 L12.0761739,44.1310345 L16.5641739,40.5713793 C17.0128696,40.2144828 17.6713043,40.2868966 18.0302609,40.7327586 C18.3902609,41.1796552 18.3172174,41.8303448 17.8674783,42.1872414 L12.650087,46.3251724 C12.4601739,46.4772414 12.2295652,46.5517241 12,46.5517241 Z" id="Shape" fill="#14A085"></path>
            </g>
        </g>
    </g>
</svg>