<?xml version="1.0" encoding="UTF-8"?>
<svg width="13px" height="10px" viewBox="0 0 13 10" version="1.1" xmlns="http://www.w3.org/2000/svg" xmlns:xlink="http://www.w3.org/1999/xlink">
    <!-- Generator: Sketch 46.2 (44496) - http://www.bohemiancoding.com/sketch -->
    <title></title>
    <desc>Created with Sketch.</desc>
    <defs></defs>
    <g id="Symbols" stroke="none" stroke-width="1" fill="none" fill-rule="evenodd">
        <g id="Symbol/Color/Check" fill="#82CD5C">
            <path d="M13,1.95286195 C13,1.74242424 12.916129,1.53198653 12.7651613,1.38047138 L11.6245161,0.235690236 C11.4735484,0.0841750842 11.263871,0 11.0541935,0 C10.8445161,0 10.6348387,0.0841750842 10.483871,0.235690236 L4.98193548,5.76599327 L2.51612903,3.28282828 C2.36516129,3.13131313 2.15548387,3.04713805 1.94580645,3.04713805 C1.73612903,3.04713805 1.52645161,3.13131313 1.37548387,3.28282828 L0.23483871,4.42760943 C0.0838709677,4.57912458 0,4.78956229 0,5 C0,5.21043771 0.0838709677,5.42087542 0.23483871,5.57239057 L4.4116129,9.76430976 C4.56258065,9.91582492 4.77225806,10 4.98193548,10 C5.1916129,10 5.40129032,9.91582492 5.55225806,9.76430976 L12.7651613,2.52525253 C12.916129,2.37373737 13,2.16329966 13,1.95286195 Z" id=""></path>
        </g>
    </g>
</svg>