<?xml version="1.0" encoding="UTF-8"?>
<svg width="60px" height="60px" viewBox="0 0 60 60" version="1.1" xmlns="http://www.w3.org/2000/svg" xmlns:xlink="http://www.w3.org/1999/xlink">
    <!-- Generator: Sketch 47.1 (45422) - http://www.bohemiancoding.com/sketch -->
    <title>icon-clock</title>
    <desc>Created with Sketch.</desc>
    <defs></defs>
    <g id="Final-images" stroke="none" stroke-width="1" fill="none" fill-rule="evenodd">
        <g id="icon-clock" fill-rule="nonzero">
            <g id="stopwatch-1" transform="translate(1.000000, 0.000000)">
                <path d="M10.2924561,14.8627119 C10.0319649,14.8627119 9.77147368,14.7630508 9.57305263,14.5647458 L5.97603509,10.9698305 C5.57817544,10.5722034 5.57817544,9.92949153 5.97603509,9.53186441 C6.37389474,9.13423729 7.01698246,9.13423729 7.41484211,9.53186441 L11.0118596,13.1267797 C11.4097193,13.5244068 11.4097193,14.1671186 11.0118596,14.5647458 C10.8134386,14.7630508 10.5529474,14.8627119 10.2924561,14.8627119 Z" id="Shape" fill="#556080"></path>
                <path d="M47.7075439,14.8627119 C47.4470526,14.8627119 47.1865614,14.7630508 46.9881404,14.5647458 C46.5902807,14.1671186 46.5902807,13.5244068 46.9881404,13.1267797 L50.5851579,9.53186441 C50.9830175,9.13423729 51.6261053,9.13423729 52.0239649,9.53186441 C52.4218246,9.92949153 52.4218246,10.5722034 52.0239649,10.9698305 L48.4269474,14.5647458 C48.2275088,14.7630508 47.9680351,14.8627119 47.7075439,14.8627119 Z" id="Shape" fill="#556080"></path>
                <ellipse id="Oval" fill="#FFFFFF" cx="29" cy="32.5423729" rx="26.4561404" ry="26.440678"></ellipse>
                <path d="M31.0350877,5.16813559 L31.0350877,3.05084746 L33.5789474,3.05084746 C34.4214737,3.05084746 35.1052632,2.36745763 35.1052632,1.52542373 L35.1052632,1.52542373 C35.1052632,0.683389831 34.4214737,0 33.5789474,0 L24.4210526,0 C23.5785263,0 22.8947368,0.683389831 22.8947368,1.52542373 L22.8947368,1.52542373 C22.8947368,2.36745763 23.5775088,3.05084746 24.4210526,3.05084746 L26.9649123,3.05084746 L26.9649123,5.16813559 C12.7640702,6.21355932 1.52631579,18.0864407 1.52631579,32.5423729 C1.52631579,47.6827119 13.850807,60 29,60 C44.149193,60 56.4736842,47.6827119 56.4736842,32.5423729 C56.4736842,18.0864407 45.2359298,6.21355932 31.0350877,5.16813559 Z M29,57.9661017 C14.9731579,57.9661017 3.56140351,46.5610169 3.56140351,32.5423729 C3.56140351,18.5237288 14.9731579,7.11864407 29,7.11864407 C43.0268421,7.11864407 54.4385965,18.5237288 54.4385965,32.5423729 C54.4385965,46.5610169 43.0268421,57.9661017 29,57.9661017 Z" id="Shape" fill="#424A60"></path>
                <rect id="Rectangle-path" fill="#DC691D" transform="translate(5.255712, 8.811987) rotate(-45.008103) translate(-5.255712, -8.811987) " x="2.20311" y="5.76167719" width="6.10520467" height="6.10061952"></rect>
                <rect id="Rectangle-path" fill="#14A085" transform="translate(52.743365, 8.812522) rotate(-45.000000) translate(-52.743365, -8.812522) " x="49.6902537" y="5.76170372" width="6.10622214" height="6.1016364"></rect>
                <g id="Group" transform="translate(1.017544, 5.084746)" fill="#424A60">
                    <path d="M27.9824561,0 C27.4197544,0 26.9649123,0.454576271 26.9649123,1.01694915 L26.9649123,4.06779661 C26.9649123,4.63016949 27.4197544,5.08474576 27.9824561,5.08474576 C28.5451579,5.08474576 29,4.63016949 29,4.06779661 L29,1.01694915 C29,0.454576271 28.5451579,0 27.9824561,0 Z" id="Shape"></path>
                    <path d="M27.9824561,49.8305085 C27.4197544,49.8305085 26.9649123,50.2850847 26.9649123,50.8474576 L26.9649123,53.8983051 C26.9649123,54.460678 27.4197544,54.9152542 27.9824561,54.9152542 C28.5451579,54.9152542 29,54.460678 29,53.8983051 L29,50.8474576 C29,50.2850847 28.5451579,49.8305085 27.9824561,49.8305085 Z" id="Shape"></path>
                    <path d="M54.4385965,26.440678 L51.3859649,26.440678 C50.8232632,26.440678 50.3684211,26.8952542 50.3684211,27.4576271 C50.3684211,28.02 50.8232632,28.4745763 51.3859649,28.4745763 L54.4385965,28.4745763 C55.0012982,28.4745763 55.4561404,28.02 55.4561404,27.4576271 C55.4561404,26.8952542 55.0012982,26.440678 54.4385965,26.440678 Z" id="Shape"></path>
                    <path d="M4.57894737,28.4745763 C5.14164912,28.4745763 5.59649123,28.02 5.59649123,27.4576271 C5.59649123,26.8952542 5.14164912,26.440678 4.57894737,26.440678 L1.52631579,26.440678 C0.963614035,26.440678 0.50877193,26.8952542 0.50877193,27.4576271 C0.50877193,28.02 0.963614035,28.4745763 1.52631579,28.4745763 L4.57894737,28.4745763 Z" id="Shape"></path>
                    <path d="M44.5317895,11.9349153 C44.7922807,11.9349153 45.0527719,11.8352542 45.251193,11.6369492 L47.4094035,9.48 C47.8072632,9.08237288 47.8072632,8.43966102 47.4094035,8.0420339 C47.0115439,7.64440678 46.3684561,7.64440678 45.9705965,8.0420339 L43.812386,10.1989831 C43.4145263,10.5966102 43.4145263,11.239322 43.812386,11.6369492 C44.010807,11.8352542 44.2712982,11.9349153 44.5317895,11.9349153 Z" id="Shape"></path>
                    <path d="M10.7137193,43.2772881 L8.55550877,45.4342373 C8.15764912,45.8318644 8.15764912,46.4745763 8.55550877,46.8722034 C8.75392982,47.0705085 9.01442105,47.1701695 9.27491228,47.1701695 C9.53540351,47.1701695 9.79589474,47.0705085 9.99431579,46.8722034 L12.1525263,44.7152542 C12.550386,44.3176271 12.550386,43.6749153 12.1525263,43.2772881 C11.7546667,42.879661 11.1115789,42.880678 10.7137193,43.2772881 Z" id="Shape"></path>
                    <path d="M45.251193,43.2772881 C44.8533333,42.879661 44.2102456,42.879661 43.812386,43.2772881 C43.4145263,43.6749153 43.4145263,44.3176271 43.812386,44.7152542 L45.9705965,46.8722034 C46.1690175,47.0705085 46.4295088,47.1701695 46.69,47.1701695 C46.9504912,47.1701695 47.2109825,47.0705085 47.4094035,46.8722034 C47.8072632,46.4745763 47.8072632,45.8318644 47.4094035,45.4342373 L45.251193,43.2772881 Z" id="Shape"></path>
                    <path d="M9.99431579,8.0420339 C9.59645614,7.64440678 8.95336842,7.64440678 8.55550877,8.0420339 C8.15764912,8.43966102 8.15764912,9.08237288 8.55550877,9.48 L10.7137193,11.6369492 C10.9121404,11.8352542 11.1726316,11.9349153 11.4331228,11.9349153 C11.693614,11.9349153 11.9541053,11.8352542 12.1525263,11.6369492 C12.550386,11.239322 12.550386,10.5966102 12.1525263,10.1989831 L9.99431579,8.0420339 Z" id="Shape"></path>
                    <path d="M22.1173333,1.65457627 C21.9718246,1.11254237 21.4162456,0.790169492 20.8708421,0.93559322 C20.3284912,1.08101695 20.0059298,1.63830508 20.1514386,2.18135593 L20.9410526,5.12847458 C21.0621404,5.5820339 21.4732281,5.8820339 21.9229825,5.8820339 C22.0104912,5.8820339 22.0990175,5.87084746 22.1875439,5.84745763 C22.7298947,5.7020339 23.0524561,5.14474576 22.9069474,4.60169492 L22.1173333,1.65457627 Z" id="Shape"></path>
                    <path d="M35.0228421,49.7877966 C34.8773333,49.2447458 34.3197193,48.9213559 33.7763509,49.0688136 C33.234,49.2142373 32.9114386,49.7715254 33.0569474,50.3145763 L33.8465614,53.260678 C33.9676491,53.7152542 34.3787368,54.0142373 34.8284912,54.0142373 C34.916,54.0142373 35.0045263,54.0030508 35.0930526,53.979661 C35.6354035,53.8342373 35.9579649,53.2769492 35.8124561,52.7338983 L35.0228421,49.7877966 Z" id="Shape"></path>
                    <path d="M49.6052632,21.6671186 C49.7273684,22.1216949 50.1374386,22.420678 50.587193,22.420678 C50.6747018,22.420678 50.7632281,22.4094915 50.8517544,22.3861017 L53.8005965,21.5959322 C54.3429474,21.4505085 54.6665263,20.8932203 54.52,20.3501695 C54.3734737,19.8071186 53.8168772,19.4867797 53.2735088,19.6311864 L50.3246667,20.4213559 C49.7823158,20.5667797 49.4587368,21.1250847 49.6052632,21.6671186 Z" id="Shape"></path>
                    <path d="M6.35964912,33.2481356 C6.21515789,32.7050847 5.65754386,32.3816949 5.11315789,32.5291525 L2.16431579,33.3183051 C1.62196491,33.4637288 1.29940351,34.0210169 1.44491228,34.5640678 C1.566,35.0186441 1.97708772,35.3176271 2.42684211,35.3176271 C2.51435088,35.3176271 2.60287719,35.3064407 2.69140351,35.2830508 L5.64024561,34.4938983 C6.18259649,34.3484746 6.50414035,33.7901695 6.35964912,33.2481356 Z" id="Shape"></path>
                    <path d="M41.7192982,3.67830508 C41.2329123,3.39661017 40.6101754,3.56440678 40.3293333,4.05050847 L38.8030175,6.69355932 C38.5221754,7.18067797 38.6890526,7.8020339 39.1754386,8.08271186 C39.335193,8.17525424 39.5102105,8.21898305 39.683193,8.21898305 C40.0352632,8.21898305 40.3771579,8.0359322 40.5654035,7.71050847 L42.0917193,5.06745763 C42.3725614,4.58135593 42.2056842,3.95898305 41.7192982,3.67830508 Z" id="Shape"></path>
                    <path d="M16.7894737,46.8325424 C16.3030877,46.5508475 15.6803509,46.7166102 15.3995088,47.2047458 L13.873193,49.8467797 C13.5923509,50.3338983 13.7592281,50.9552542 14.245614,51.2359322 C14.4053684,51.3284746 14.580386,51.3722034 14.7533684,51.3722034 C15.1054386,51.3722034 15.4473333,51.1901695 15.6355789,50.8637288 L17.1618947,48.2216949 C17.4427368,47.7355932 17.2758596,47.1142373 16.7894737,46.8325424 Z" id="Shape"></path>
                    <path d="M51.4022456,39.7972881 L48.7586667,38.2718644 C48.2722807,37.9901695 47.6495439,38.1559322 47.3687018,38.6440678 C47.0878596,39.1311864 47.2547368,39.7525424 47.7411228,40.0332203 L50.3847018,41.5586441 C50.5454737,41.6511864 50.7204912,41.6949153 50.8934737,41.6949153 C51.2455439,41.6949153 51.5874386,41.5128814 51.7756842,41.1864407 C52.0565263,40.699322 51.8896491,40.0779661 51.4022456,39.7972881 Z" id="Shape"></path>
                    <path d="M4.56164912,15.1179661 L7.20522807,16.6433898 C7.36498246,16.7359322 7.54,16.779661 7.71298246,16.779661 C8.06505263,16.779661 8.40694737,16.5976271 8.59519298,16.2711864 C8.87603509,15.7840678 8.70915789,15.1627119 8.22277193,14.8820339 L5.57919298,13.3566102 C5.09280702,13.0749153 4.47007018,13.2416949 4.18922807,13.7288136 C3.90838596,14.2149153 4.07526316,14.8372881 4.56164912,15.1179661 Z" id="Shape"></path>
                    <path d="M15.6355789,4.05050847 C15.3537193,3.56440678 14.7289474,3.39661017 14.245614,3.67830508 C13.7582105,3.95898305 13.5913333,4.58135593 13.873193,5.06745763 L15.3995088,7.71050847 C15.5887719,8.0359322 15.9296491,8.21898305 16.2817193,8.21898305 C16.4547018,8.21898305 16.6297193,8.17525424 16.7894737,8.08271186 C17.2768772,7.8020339 17.4437544,7.17966102 17.1618947,6.69355932 L15.6355789,4.05050847 Z" id="Shape"></path>
                    <path d="M40.5654035,47.2057627 C40.2835439,46.7176271 39.6597895,46.5508475 39.1754386,46.8335593 C38.6880351,47.1142373 38.5211579,47.7366102 38.8030175,48.2227119 L40.3293333,50.8647458 C40.5185965,51.1911864 40.8594737,51.3732203 41.2115439,51.3732203 C41.3845263,51.3732203 41.5595439,51.3294915 41.7192982,51.2369492 C42.2067018,50.9562712 42.3735789,50.3338983 42.0917193,49.8477966 L40.5654035,47.2057627 Z" id="Shape"></path>
                    <path d="M47.3697193,16.2711864 C47.5589825,16.5976271 47.8998596,16.779661 48.2519298,16.779661 C48.4249123,16.779661 48.5999298,16.7359322 48.7596842,16.6433898 L51.4032632,15.1179661 C51.8906667,14.8372881 52.0575439,14.2149153 51.7756842,13.7288136 C51.4938246,13.2416949 50.8700702,13.0738983 50.3857193,13.3566102 L47.7421404,14.8820339 C47.2547368,15.1627119 47.0878596,15.7840678 47.3697193,16.2711864 Z" id="Shape"></path>
                    <path d="M8.59519298,38.6440678 C8.31333333,38.1559322 7.68957895,37.9891525 7.20522807,38.2718644 L4.56164912,39.7972881 C4.07526316,40.0779661 3.90838596,40.699322 4.18922807,41.1864407 C4.37849123,41.5128814 4.72038596,41.6949153 5.0714386,41.6949153 C5.24442105,41.6949153 5.4194386,41.6511864 5.57919298,41.5586441 L8.22277193,40.0332203 C8.70915789,39.7525424 8.87705263,39.1301695 8.59519298,38.6440678 Z" id="Shape"></path>
                    <path d="M35.0930526,0.93559322 C34.5517193,0.791186441 33.9920702,1.11254237 33.8465614,1.65457627 L33.0569474,4.60169492 C32.9114386,5.14372881 33.234,5.7020339 33.7763509,5.84745763 C33.8648772,5.87084746 33.9534035,5.8820339 34.0409123,5.8820339 C34.4896491,5.8820339 34.9017544,5.5820339 35.0228421,5.12847458 L35.8124561,2.18135593 C35.9579649,1.63830508 35.6354035,1.08 35.0930526,0.93559322 Z" id="Shape"></path>
                    <path d="M22.1885614,49.0688136 C21.6462105,48.9223729 21.0875789,49.2447458 20.9420702,49.7877966 L20.1524561,52.7338983 C20.0069474,53.2759322 20.3295088,53.8342373 20.8718596,53.979661 C20.960386,54.0030508 21.0489123,54.0142373 21.1364211,54.0142373 C21.5851579,54.0142373 21.9972632,53.7152542 22.1183509,53.260678 L22.9079649,50.3145763 C23.0524561,49.7715254 22.7309123,49.2132203 22.1885614,49.0688136 Z" id="Shape"></path>
                    <path d="M53.8005965,33.3183051 L50.8517544,32.5291525 C50.3114386,32.3827119 49.7507719,32.7061017 49.6052632,33.2481356 C49.4597544,33.7901695 49.7823158,34.3484746 50.3246667,34.4938983 L53.2735088,35.2830508 C53.3620351,35.3064407 53.4505614,35.3176271 53.5380702,35.3176271 C53.986807,35.3176271 54.3989123,35.0176271 54.52,34.5640678 C54.6655088,34.0220339 54.3429474,33.4637288 53.8005965,33.3183051 Z" id="Shape"></path>
                    <path d="M2.16431579,21.5959322 L5.11315789,22.3861017 C5.20168421,22.4094915 5.29021053,22.420678 5.3777193,22.420678 C5.82645614,22.420678 6.23754386,22.1216949 6.35964912,21.6671186 C6.50617544,21.1250847 6.18259649,20.5667797 5.64024561,20.4213559 L2.69140351,19.6311864 C2.14905263,19.4877966 1.5914386,19.8071186 1.44491228,20.3501695 C1.29838596,20.8932203 1.62196491,21.4515254 2.16431579,21.5959322 Z" id="Shape"></path>
                </g>
                <path d="M17.8070175,21.3559322 L17.8070175,21.3559322 L30.9781053,30.8776271 C32.2744561,31.819322 32.422,33.6966102 31.2884561,34.8294915 L31.2884561,34.8294915 C30.1549123,35.9623729 28.2775439,35.8149153 27.3342807,34.519322 L17.8070175,21.3559322 Z" id="Shape" fill="#48A0DC"></path>
            </g>
        </g>
    </g>
</svg>