<?xml version="1.0" encoding="UTF-8"?>
<svg width="77px" height="59px" viewBox="0 0 77 59" version="1.1" xmlns="http://www.w3.org/2000/svg" xmlns:xlink="http://www.w3.org/1999/xlink">
    <!-- Generator: Sketch 48.2 (47327) - http://www.bohemiancoding.com/sketch -->
    <title>placeholder-logo-dark</title>
    <desc>Created with Sketch.</desc>
    <defs>
        <linearGradient x1="50%" y1="0%" x2="50%" y2="100%" id="linearGradient-1">
            <stop stop-color="#00D2FF" offset="0%"></stop>
            <stop stop-color="#3A7BD5" offset="100%"></stop>
        </linearGradient>
    </defs>
    <g id="Option-1-Copy" stroke="none" stroke-width="1" fill="none" fill-rule="evenodd" transform="translate(-177.000000, -235.000000)">
        <g id="placeholder-logo-dark" transform="translate(176.000000, 235.000000)">
            <path d="M8.75982783,46.8094692 C9.46992225,47.6297506 9.82496413,48.7928189 9.82496413,50.2987088 C9.82496413,52.1106738 9.39952601,53.3931096 8.54863702,54.1460545 C7.69774802,54.8989995 6.61731884,55.2754663 5.30731707,55.2754663 C2.67507053,55.2754663 1.358967,54.5776253 1.358967,53.1819225 L1.358967,42.0898135 L3.26886657,42.0898135 L3.26886657,46.1483501 C3.62391378,45.976948 4.02486625,45.8392162 4.47173601,45.7351506 C4.91860577,45.6310851 5.30731542,45.5790531 5.63787661,45.5790531 C7.00909342,45.5790531 8.04973342,45.9891877 8.75982783,46.8094692 Z M7.26312769,52.7411765 C7.66102542,52.1657551 7.85997131,51.376093 7.85997131,50.3721664 C7.85997131,49.3437538 7.6487826,48.5602131 7.22639885,48.0215208 C6.8040151,47.4828285 6.1765704,47.2134864 5.34404591,47.2134864 C5.00124171,47.2134864 4.64313912,47.259397 4.2697274,47.3512195 C3.89631568,47.4430421 3.56269874,47.5746524 3.26886657,47.7460545 L3.26886657,52.7044476 C3.26886657,53.304355 3.89937198,53.6043042 5.16040172,53.6043042 C6.16432831,53.6043042 6.86522996,53.3165978 7.26312769,52.7411765 Z M12.1251076,54.0266858 C11.3844057,53.1941613 11.0140602,51.9821218 11.0140602,50.3905308 C11.0140602,47.17062 12.4831991,45.5606887 15.4215208,45.5606887 C16.9029247,45.5606887 18.0170216,45.973884 18.763845,46.8002869 C19.5106685,47.6266899 19.8840746,48.8234259 19.8840746,50.3905308 C19.8840746,51.9576358 19.4984257,53.1635539 18.7271162,54.0083214 C17.9558068,54.8530889 16.860074,55.2754663 15.4398852,55.2754663 C13.9707244,55.2754663 12.8658095,54.8592103 12.1251076,54.0266858 Z M17.9558106,50.3905308 C17.9558106,49.3131462 17.753804,48.5081806 17.3497848,47.9756098 C16.9457655,47.4430389 16.3030173,47.1767575 15.4215208,47.1767575 C14.5277813,47.1767575 13.8880937,47.4491604 13.502439,47.9939742 C13.1167843,48.538788 12.9239598,49.3376322 12.9239598,50.3905308 C12.9239598,51.4434295 13.1229057,52.2483951 13.5208034,52.8054519 C13.9187012,53.3625088 14.5522673,53.641033 15.4215208,53.641033 C17.1110558,53.641033 17.9558106,52.5575431 17.9558106,50.3905308 Z M22.1658536,54.0266858 C21.4251517,53.1941613 21.0548063,51.9821218 21.0548063,50.3905308 C21.0548063,47.17062 22.5239451,45.5606887 25.4622668,45.5606887 C26.9436707,45.5606887 28.0577676,45.973884 28.8045911,46.8002869 C29.5514145,47.6266899 29.9248206,48.8234259 29.9248206,50.3905308 C29.9248206,51.9576358 29.5391717,53.1635539 28.7678622,54.0083214 C27.9965528,54.8530889 26.9008201,55.2754663 25.4806313,55.2754663 C24.0114704,55.2754663 22.9065556,54.8592103 22.1658536,54.0266858 Z M27.9965567,50.3905308 C27.9965567,49.3131462 27.7945501,48.5081806 27.3905308,47.9756098 C26.9865116,47.4430389 26.3437634,47.1767575 25.4622668,47.1767575 C24.5685273,47.1767575 23.9288398,47.4491604 23.5431851,47.9939742 C23.1575303,48.538788 22.9647059,49.3376322 22.9647059,50.3905308 C22.9647059,51.4434295 23.1636517,52.2483951 23.5615495,52.8054519 C23.9594472,53.3625088 24.5930133,53.641033 25.4622668,53.641033 C27.1518018,53.641033 27.9965567,52.5575431 27.9965567,50.3905308 Z M32.876901,54.5592539 C32.3994237,54.1062627 32.1606886,53.4635144 32.1606886,52.63099 L32.1606886,47.3787661 L30.6731707,47.3787661 L30.6731707,45.7810617 L32.1606886,45.7810617 L32.1606886,43.210043 L34.1440459,43.210043 L34.1440459,45.7810617 L36.384505,45.7810617 L36.384505,47.3787661 L34.1440459,47.3787661 L34.1440459,52.2453372 C34.1440459,52.6983284 34.2236242,53.025824 34.3827833,53.2278336 C34.5419424,53.4298432 34.8235274,53.5308465 35.2275466,53.5308465 C35.4234347,53.5308465 35.628502,53.5033001 35.8427546,53.4482066 C36.0570073,53.3931131 36.2375889,53.3227168 36.384505,53.2370158 L36.384505,54.9449067 C35.9559997,55.1407949 35.4479226,55.2387374 34.8602582,55.2387374 C34.0154907,55.2387374 33.3543783,55.0122452 32.876901,54.5592539 Z M39.1253945,55.0918221 C38.6785247,54.969392 38.1979939,54.7857497 37.6837876,54.5408895 L37.6837876,52.7228121 C38.2347229,53.0656163 38.7366787,53.3196548 39.18967,53.4849354 C39.6426612,53.650216 40.1507384,53.7328551 40.7139167,53.7328551 C41.2403661,53.7328551 41.6535614,53.6257304 41.953515,53.4114778 C42.2534687,53.1972251 42.4034433,52.9187009 42.4034433,52.5758967 C42.4034433,52.2453355 42.2810151,52.000479 42.0361549,51.8413199 C41.7912948,51.6821608 41.4117672,51.5107613 40.8975609,51.3271162 L40.4751793,51.1802009 C39.6181688,50.9720697 38.9356314,50.6721206 38.4275466,50.2803443 C37.9194618,49.8885681 37.6654232,49.2764269 37.6654232,48.4439024 C37.6654232,47.7950231 37.8368227,47.2563388 38.1796269,46.8278336 C38.5224311,46.3993283 38.9539907,46.0871363 39.4743185,45.8912482 C39.9946463,45.6953601 40.5425126,45.5974175 41.117934,45.5974175 C41.7055983,45.6096605 42.2014327,45.6800567 42.6054519,45.8086083 C43.0094711,45.9371599 43.4502128,46.123863 43.9276901,46.3687231 L43.9276901,48.0215208 C43.2910537,47.6909596 42.8105229,47.4644674 42.4860832,47.3420373 C42.1616435,47.2196072 41.7729338,47.1583931 41.3199426,47.1583931 C40.8179793,47.1583931 40.4139661,47.2502143 40.1078909,47.4338594 C39.8018157,47.6175045 39.6487805,47.8746038 39.6487805,48.205165 C39.6487805,48.5969412 39.8018157,48.8815869 40.1078909,49.0591105 C40.4139661,49.2366341 40.8914362,49.4172157 41.5403156,49.6008608 C42.152466,49.7722629 42.6391182,49.9375411 43.0002869,50.0967001 C43.3614556,50.2558592 43.679769,50.5160192 43.9552367,50.8771879 C44.2307044,51.2383567 44.3684361,51.7311303 44.3684361,52.3555237 C44.3561931,53.3349642 43.9980905,54.066473 43.2941176,54.5500717 C42.5901447,55.0336705 41.7300863,55.2754663 40.7139167,55.2754663 C40.1017664,55.2754663 39.5722643,55.2142522 39.1253945,55.0918221 Z M47.3572453,54.5592539 C46.879768,54.1062627 46.641033,53.4635144 46.641033,52.63099 L46.641033,47.3787661 L45.153515,47.3787661 L45.153515,45.7810617 L46.641033,45.7810617 L46.641033,43.210043 L48.6243902,43.210043 L48.6243902,45.7810617 L50.8648493,45.7810617 L50.8648493,47.3787661 L48.6243902,47.3787661 L48.6243902,52.2453372 C48.6243902,52.6983284 48.7039685,53.025824 48.8631276,53.2278336 C49.0222867,53.4298432 49.3038717,53.5308465 49.7078909,53.5308465 C49.903779,53.5308465 50.1088463,53.5033001 50.3230989,53.4482066 C50.5373516,53.3931131 50.7179332,53.3227168 50.8648493,53.2370158 L50.8648493,54.9449067 C50.4363441,55.1407949 49.9282669,55.2387374 49.3406025,55.2387374 C48.495835,55.2387374 47.8347226,55.0122452 47.3572453,54.5592539 Z M52.5314203,46.625825 C52.8742245,46.4176938 53.4557586,46.1912016 54.2760401,45.9463415 C55.0963216,45.7014813 55.9104694,45.5790531 56.7185078,45.5790531 C57.2082281,45.5790531 57.6244841,45.6586314 57.9672883,45.8177905 L57.9672883,47.3604017 C57.6244841,47.3114297 57.2143495,47.286944 56.7368723,47.286944 C55.9288338,47.286944 55.1697787,47.3481582 54.4596843,47.4705882 L54.4596843,55 L52.5314203,55 L52.5314203,46.625825 Z M65.8318507,46.3044476 C66.5358236,46.7880464 66.8816834,47.5685264 66.8694404,48.645911 L66.8694404,53.0533716 C66.8694404,53.8858961 66.5021557,54.4643695 65.7675753,54.7888092 C65.0329948,55.1132489 63.9862334,55.2754663 62.6272596,55.2754663 C61.537632,55.2754663 60.6377845,55.048974 59.92769,54.5959828 C59.2175956,54.1429915 58.8625537,53.3839365 58.8625537,52.3187948 C58.8625537,51.3148682 59.1533208,50.5619346 59.7348636,50.0599713 C60.3164065,49.558008 61.1397364,49.3070301 62.204878,49.3070301 C63.3067486,49.3070301 64.2249604,49.527401 64.9595408,49.9681492 L64.9595408,49.0866571 C64.9595408,47.8378704 64.2066072,47.2134864 62.7007173,47.2134864 C62.162025,47.2134864 61.6233407,47.2961254 61.0846484,47.461406 C60.5459561,47.6266866 60.0990931,47.8562396 59.7440458,48.1500717 L59.7440458,46.3503587 C60.08685,46.1299846 60.5857451,45.9463422 61.240746,45.7994261 C61.8957469,45.65251 62.5721629,45.5790531 63.2700143,45.5790531 C64.2739409,45.5790531 65.1278778,45.8208488 65.8318507,46.3044476 Z M64.4820659,53.6043042 C64.8003841,53.4941171 64.9595408,53.2737463 64.9595408,52.9431851 L64.9595408,51.1618364 C64.3351475,50.8924903 63.6495493,50.7578192 62.9027259,50.7578192 C62.2048745,50.7578192 61.6753724,50.8802475 61.3142037,51.1251076 C60.953035,51.3699677 60.7724533,51.7372525 60.7724533,52.2269727 C60.7724533,52.741179 60.9775206,53.126828 61.3876613,53.3839311 C61.7978021,53.6410343 62.2844543,53.7695839 62.8476326,53.7695839 C63.6189421,53.7695839 64.1637477,53.7144912 64.4820659,53.6043042 Z M76.276614,46.7360115 C77.090774,47.5195639 77.4978478,48.7928176 77.4978478,50.5558106 C77.4978478,52.0004855 77.1244417,53.1451895 76.3776183,53.989957 C75.6307949,54.8347245 74.5840334,55.2571019 73.2373027,55.2571019 C72.9067415,55.2571019 72.5272139,55.214252 72.0987087,55.1285509 C71.6702034,55.0428499 71.2845545,54.9143002 70.9417503,54.7428981 L70.9417503,58.6912482 L69.0318507,58.6912482 L69.0318507,47.5624103 C69.0318507,46.8645589 69.4266818,46.3564817 70.2163557,46.0381636 C71.0060297,45.7198454 71.9517878,45.5606887 73.0536585,45.5606887 C74.3881462,45.5606887 75.462454,45.952459 76.276614,46.7360115 Z M74.8625537,52.8238164 C75.3094235,52.2912455 75.532855,51.5230084 75.532855,50.5190818 C75.532855,49.4784262 75.346152,48.6703998 74.9727402,48.0949785 C74.5993285,47.5195571 73.9351553,47.2318508 72.9802008,47.2318508 C72.3680504,47.2318508 71.8752768,47.2991863 71.5018651,47.4338594 C71.1284533,47.5685325 70.9417503,47.7521748 70.9417503,47.984792 L70.9417503,53.0901004 C71.5416576,53.4451476 72.1905273,53.6226686 72.8883787,53.6226686 C73.7576322,53.6226686 74.415684,53.3563872 74.8625537,52.8238164 Z" id="bootstrap" fill="#505050"></path>
            <path d="M41.0124828,0.443684895 L54.054949,7.97003979 C55.0801014,8.56161965 55.7116212,9.65490432 55.7116212,10.838064 L55.7116212,25.8907738 C55.7116212,27.0739336 55.0801014,28.1672182 54.054949,28.7587981 L41.0124828,36.285153 C39.9873305,36.8767328 38.7242907,36.8767328 37.6991384,36.285153 L24.6566722,28.7587981 C23.6315199,28.1672182 23,27.0739336 23,25.8907738 L23,10.838064 C23,9.65490432 23.6315199,8.56161965 24.6566722,7.97003979 L37.6991384,0.443684895 C38.7242907,-0.147894965 39.9873305,-0.147894965 41.0124828,0.443684895 Z M39.518379,12.1128745 C39.4266871,12.0250092 39.2738744,12.0347651 39.1821905,12.1226226 C37.4096361,13.8212016 36.8442883,15.1439801 36.8393068,17.5796936 C36.8444264,18.1410306 36.880111,18.7511809 36.9361719,19.3906191 L35.1075975,21.3381364 C35.061756,21.3918276 35.0413845,21.4699258 35.0566692,21.5431443 L35.8718095,24.5109421 C35.8972826,24.6036858 35.9889737,24.6720263 36.0959431,24.676912 L36.7479459,24.6769396 C36.8090712,24.6769422 36.8701951,24.6476577 36.9109435,24.6086099 C36.9262241,24.593967 36.9415048,24.579324 36.9516914,24.5597997 L37.9245207,22.7977314 L40.7872207,22.7978525 L41.7602123,24.5600032 C41.8009657,24.6283416 41.8773743,24.6722755 41.9639686,24.6771604 L42.6159715,24.6771879 C42.6821903,24.6723096 42.7382206,24.647906 42.778969,24.6088582 C42.8095303,24.5795723 42.829904,24.5502861 42.8400898,24.511237 L43.6549566,21.5435081 C43.6702345,21.4702909 43.6498558,21.392191 43.6040094,21.338496 L41.7752554,19.3908239 C41.8312575,18.7513904 41.8668858,18.1412432 41.8719537,17.5799066 C41.8667531,15.2613412 41.209586,13.733501 39.518379,12.1128745 Z" id="Combined-Shape" fill="url(#linearGradient-1)"></path>
        </g>
    </g>
</svg>